<mxfile host="app.diagrams.net" modified="2024-02-06T02:53:25.965Z" agent="Mozilla/5.0 (Windows NT 10.0; Win64; x64) AppleWebKit/537.36 (KHTML, like Gecko) Chrome/121.0.0.0 Safari/537.36 Edg/121.0.0.0" version="23.1.1" etag="fk30YNTMc9nqdrmRzZ6x" type="github">
  <diagram name="第 1 页" id="240bdJhtq2D6pQq34B5v">
    <mxGraphModel>
      <root>
        <mxCell id="0" />
        <mxCell id="1" parent="0" />
      </root>
    </mxGraphModel>
  </diagram>
</mxfile>
